<?xml version="1.0" encoding="UTF-8" standalone="no"?>
<!DOCTYPE svg PUBLIC "-//W3C//DTD SVG 1.1//EN" "http://www.w3.org/Graphics/SVG/1.1/DTD/svg11.dtd">
<svg width="100%" height="100%" viewBox="0 0 1700 600" version="1.1" xmlns="http://www.w3.org/2000/svg" xmlns:xlink="http://www.w3.org/1999/xlink" xml:space="preserve" xmlns:serif="http://www.serif.com/" style="fill-rule:evenodd;clip-rule:evenodd;stroke-linejoin:round;stroke-miterlimit:2;">
    <g transform="matrix(1,0,0,1,0,18.7981)">
        <g transform="matrix(0.973231,0,0,0.973231,-35.0036,17.3508)">
            <g id="Logo" transform="matrix(1,0,0,1,5,0)">
                <g id="polygon4138" transform="matrix(1,0,0,1,60.7088,-0.360445)">
                    <path d="M53.482,270.421L53.436,281.044L31.267,270.092L31.009,258.254L8.856,247.687L5.732,259.958L10.65,272.74L79.028,306.29L80.432,298.181L77.19,281.221L53.482,270.421Z" style="fill-rule:nonzero;"/>
                </g>
                <g id="path4144" transform="matrix(1,0,0,1,60.7088,-0.360445)">
                    <path d="M83.205,292.595L96.934,275.617L98.3,276.358C98.446,276.437 100.283,277.449 102.392,279.111L104.863,275.994C104.574,275.894 104.284,275.797 103.995,275.707L102.693,275.3L102.646,268.143L115.155,251.602L116.582,252.421C116.73,252.507 118.79,253.705 120.987,255.65L122.883,253.258C122.515,253.078 122.14,252.9 121.767,252.731L120.678,252.237L120.641,245.87L133.481,229.318L134.897,230.15C135.029,230.228 136.84,231.307 138.81,233.165L140.608,230.896C140.395,230.807 140.182,230.718 139.969,230.634L138.781,230.16L138.85,223.146L151.614,207.404L153.014,208.277C153.146,208.359 154.681,209.33 156.485,210.865L157.27,209.874L155.461,209.092L155.414,202.106L167.991,186.833L169.357,187.61L171.795,189.024L171.823,182.011L184.03,166.7L185.49,167.865C185.57,167.928 186.344,168.554 187.361,169.587L187.063,162.923L199.337,147.744L200.769,148.769C200.8,148.791 200.958,148.907 201.198,149.101L201.2,145.128L211.729,131.928L209.756,122.273L176.134,163.513C175.027,167.085 173.53,170.493 171.633,173.832C167.98,180.259 161.242,188.403 156.612,191.988C154.516,193.611 151.734,195.413 148.7,197.163L80.838,280.431L83.205,292.595Z" style="fill-rule:nonzero;"/>
                </g>
                <g id="path4149" transform="matrix(1,0,0,1,60.7088,-0.360445)">
                    <path d="M51.091,259.704C50.558,258.5 49.576,257.658 48.089,257.133C46.634,256.618 45.04,256.358 43.35,256.358C39.881,256.358 36.787,257.432 35.121,258.142C34.984,258.211 34.833,258.288 34.714,258.346L34.819,265.752C37.591,264.566 41.599,263.417 45.181,263.417C47.669,263.417 49.692,263.964 51.234,265.031C51.59,263.546 51.852,261.426 51.091,259.704Z" style="fill-rule:nonzero;"/>
                </g>
                <g id="path4151" transform="matrix(1,0,0,1,60.7088,-0.360445)">
                    <path d="M49.726,275.044L49.761,266.853C49.556,266.75 49.341,266.652 49.111,266.559C47.788,266.028 46.393,265.758 44.964,265.758C41.563,265.758 38.504,267.264 36.536,268.529L49.726,275.044Z" style="fill-rule:nonzero;"/>
                </g>
                <g id="path4153" transform="matrix(1,0,0,1,60.7088,-0.360445)">
                    <path d="M1.818,260.188L4.407,250.024C2.863,251.624 1.423,253.313 0.824,254.561C-0.202,256.697 -0.1,263.562 0.225,267.914L2.253,269.573L2.194,284.091C2.485,285.088 2.964,286.148 3.331,286.637C3.726,286.271 4.286,285.484 4.706,284.693L5.107,268.735L1.818,260.188Z" style="fill:rgb(128,128,128);fill-rule:nonzero;"/>
                </g>
                <g id="path4155" transform="matrix(1,0,0,1,60.7088,-0.360445)">
                    <path d="M138.541,202.345C137.966,202.6 137.4,202.842 136.843,203.074C136.774,203.103 136.704,203.133 136.635,203.161C136.095,203.384 135.568,203.593 135.051,203.791C134.972,203.821 134.894,203.851 134.816,203.881C134.309,204.072 133.816,204.25 133.337,204.414C133.26,204.44 133.185,204.466 133.108,204.492C132.634,204.652 132.176,204.797 131.736,204.925C131.668,204.945 131.602,204.964 131.536,204.983C131.096,205.108 130.673,205.219 130.274,205.31C130.223,205.322 130.175,205.331 130.125,205.342C129.721,205.431 129.336,205.503 128.981,205.552C128.952,205.556 128.927,205.557 128.898,205.561C128.531,205.608 128.188,205.637 127.881,205.637C127.713,205.637 127.563,205.61 127.404,205.597L127.408,205.619L123.874,205.704C116.889,205.874 106.754,205.959 93.753,205.959L93.75,205.959C83.456,205.959 73.526,205.907 66.025,205.861L61.614,205.834L61.629,205.798C61.406,205.817 61.185,205.837 60.94,205.837C60.616,205.837 60.275,205.817 59.923,205.783C59.813,205.772 59.694,205.752 59.582,205.738C59.332,205.708 59.08,205.675 58.817,205.63C58.685,205.607 58.547,205.576 58.412,205.549C58.155,205.499 57.897,205.446 57.63,205.383C57.493,205.351 57.353,205.313 57.214,205.278C56.936,205.207 56.655,205.133 56.368,205.05C56.237,205.012 56.103,204.971 55.97,204.931C55.662,204.838 55.351,204.741 55.034,204.636C54.918,204.597 54.801,204.557 54.684,204.517C54.336,204.398 53.986,204.273 53.631,204.142C53.541,204.108 53.451,204.076 53.36,204.041C52.964,203.892 52.565,203.736 52.161,203.574C52.108,203.553 52.055,203.532 52.002,203.51C51.544,203.324 51.082,203.131 50.619,202.93L10.038,244.029L32.901,255.04C34.632,254.233 38.673,252.622 43.349,252.622C45.463,252.622 47.476,252.955 49.332,253.61C51.815,254.488 53.559,256.036 54.514,258.212C55.821,261.189 55.24,264.602 54.681,266.608L78.313,277.619L140.505,201.447C140.504,201.447 140.504,201.448 140.503,201.448C139.888,201.737 139.278,202.015 138.676,202.283C138.631,202.304 138.586,202.325 138.541,202.345Z" style="fill-rule:nonzero;"/>
                </g>
                <g id="path4157" transform="matrix(1,0,0,1,60.7088,-0.360445)">
                    <path d="M172.503,113.407C172.76,114.287 173.01,115.156 173.25,116.014C173.327,116.287 173.404,116.561 173.479,116.832C173.73,117.74 173.971,118.637 174.204,119.521C174.246,119.684 174.292,119.851 174.334,120.013C174.614,121.092 174.881,122.155 175.132,123.199C175.135,123.211 175.137,123.222 175.14,123.234C175.379,124.225 175.601,125.198 175.813,126.159C175.862,126.38 175.908,126.598 175.956,126.818C176.123,127.589 176.282,128.35 176.432,129.102C176.478,129.332 176.525,129.563 176.569,129.792C176.727,130.605 176.875,131.407 177.012,132.198C177.034,132.323 177.058,132.45 177.079,132.574C177.397,134.434 177.658,136.235 177.865,137.985C177.886,138.17 177.906,138.351 177.927,138.534C178.005,139.223 178.073,139.906 178.134,140.579C178.152,140.77 178.169,140.962 178.185,141.153C178.246,141.889 178.296,142.616 178.336,143.333C178.341,143.424 178.348,143.517 178.353,143.608C178.439,145.256 178.467,146.856 178.442,148.416C178.439,148.572 178.434,148.727 178.431,148.882C178.416,149.503 178.393,150.117 178.361,150.725C178.352,150.89 178.343,151.054 178.334,151.218C178.293,151.885 178.242,152.544 178.18,153.196C178.173,153.268 178.168,153.34 178.161,153.411C178.085,154.169 177.996,154.917 177.891,155.657L207.818,118.997L169.775,105.125C170.131,106.276 171.957,111.556 172.287,112.671C172.361,112.917 172.431,113.161 172.503,113.407Z" style="fill-rule:nonzero;"/>
                </g>
                <g id="path4159" transform="matrix(1,0,0,1,60.7088,-0.360445)">
                    <path d="M166.405,170.86C175.06,155.631 174.568,139.154 164.523,107.898C157.462,85.93 156.215,74.919 157.117,63.641C157.497,56.952 158.324,51.841 158.253,48.721C156.717,49.574 154.67,50.777 152.225,52.327C144.06,57.504 136.935,65.159 134.453,76.973C133.057,83.622 129.817,84.281 128.535,84.281C120.645,84.281 110.595,70.089 103.401,54.598C93.873,32.791 95.371,23.542 104.028,0C99.671,2.039 91.536,7.551 86.818,13.003C71.596,30.589 68.643,40.881 71.708,66.694C73.204,79.292 71.276,94.748 68.085,101.738C66.257,105.743 64.026,106.585 62.476,106.585L62.475,106.585C61.302,106.585 60.191,106.09 59.345,105.191C57.522,103.252 57.324,99.853 57.479,97.343C58.096,87.38 53.354,72.468 47.332,65.432C44.223,61.8 42.551,60.228 41.656,59.565C40.774,62.27 40.396,69.669 40.261,72.306C40.135,82.407 39.27,89.653 32.747,99.289C19.841,118.355 14.473,129.465 12.675,142.045C9.595,163.595 19.286,179.303 44.097,192.977C53.171,197.977 57.754,199.348 59.8,199.704C58.866,197.922 58.158,196.578 56.055,194.546C49.365,188.256 49.659,176.204 56.929,158.724C60.528,150.071 61.94,147.888 63.352,138.919C64.179,131.288 68.176,130.694 69.499,130.694C73.134,130.694 76.569,134.34 78.688,140.449C79.563,142.97 80.513,144.844 81.135,145.835C85.382,143.509 95.689,126.53 96.481,114.715C96.726,111.069 97.232,103.484 102.376,103.484C105.147,103.484 107.595,105.927 110.829,111.915C114.675,119.037 114.693,124.204 113.115,141.507C112.77,145.29 112.541,148.361 112.401,150.852C114.005,146.659 116.654,143.106 120.028,143.106C124.855,143.417 125.209,148.841 125.562,152.371C125.87,155.445 127.673,160.933 129.408,164.178C136.237,177.911 136.916,185.391 132.203,194.963C131.427,196.539 130.85,197.939 130.449,199.061C135.838,197.352 146.717,192.041 152.929,187.233C156.965,184.108 163.136,176.61 166.405,170.86Z" style="fill:rgb(241,68,0);fill-rule:nonzero;"/>
                </g>
                <g id="polygon4165" transform="matrix(1,0,0,1,40.7166,-19.7606)">
                    <path d="M123.718,120.191L123.717,120.189L123.717,120.191L123.718,120.191Z" style="fill:rgb(255,182,41);fill-rule:nonzero;"/>
                </g>
                <g id="path4167" transform="matrix(1,0,0,1,60.7088,-0.360445)">
                    <path d="M124.614,204.324C123.899,203.515 122.222,201.619 126.81,192.305C130.62,184.569 129.995,178.86 124.025,166.855C121.704,162.189 119.351,155.397 119.561,151.999C119.603,151.326 119.549,150.702 119.457,150.177C118.339,151.86 116.945,155.126 116.718,158.785C116.317,165.285 113.271,166.256 111.491,166.256C110.874,166.256 110.252,166.127 109.642,165.873C105.936,164.327 105.443,159.438 107.127,140.961C108.785,122.787 108.34,119.96 105.538,114.772C104.449,112.754 103.62,111.483 103.023,110.685C102.827,111.612 102.621,113.015 102.48,115.117C101.638,127.659 89.405,152.108 80.375,152.108C80.26,152.108 80.145,152.105 80.032,152.098C79.105,152.04 76.284,151.866 73.007,142.42C71.836,139.045 70.488,137.499 69.792,136.945C68.222,149.112 65.967,152.99 62.479,161.033C56.444,175.544 55.625,185.89 60.172,190.165C64.275,194.658 64.404,195.273 65.564,197.807C66.622,200.115 66.653,202.072 65.657,203.623C65.067,204.542 63.888,205.611 61.628,205.798L61.613,205.834L66.024,205.861C73.525,205.907 83.455,205.959 93.749,205.959L93.752,205.959C106.753,205.959 116.888,205.874 123.873,205.704L127.407,205.619L127.403,205.597C126.236,205.502 125.29,205.09 124.614,204.324Z" style="fill:rgb(255,182,41);fill-rule:nonzero;"/>
                </g>
                <g id="path4171" transform="matrix(1,0,0,1,60.7088,-0.360445)">
                    <path d="M104.573,287.045C103.173,284.299 99.931,281.792 97.841,280.437L86.997,293.846L87.123,296.851C88.924,297.53 91.18,298.509 92.032,299.429C92.439,299.868 93.275,300.772 95.908,316.877L99.564,317.903L102.22,337.224C102.942,337.936 103.795,338.569 104.25,338.721C104.65,338.301 105.256,337.022 105.612,335.841L105.446,333.352C104.906,325.2 104.349,320.77 103.127,312.575L103.057,312.105L105.778,304.655C106.045,300.665 106.31,290.453 104.573,287.045Z" style="fill:rgb(128,128,128);fill-rule:nonzero;"/>
                </g>
                <g id="path4173" transform="matrix(1,0,0,1,60.7088,-0.360445)">
                    <path d="M122.084,262.832C120.768,260.097 117.836,257.765 116.095,256.553L106.39,269.385L106.411,272.573C108.064,273.156 110.062,274.003 110.855,274.91C111.23,275.337 112.002,276.219 114.42,291.872L117.781,292.872L120.226,311.603C120.798,312.197 121.466,312.741 121.881,312.95C122.242,312.468 122.737,311.325 123.044,310.25L122.889,307.793C122.393,299.863 121.881,295.664 120.758,287.693L120.695,287.248L123.194,280.002C123.44,276.116 123.685,266.156 122.084,262.832Z" style="fill:rgb(128,128,128);fill-rule:nonzero;"/>
                </g>
                <g id="path4175" transform="matrix(1,0,0,1,60.7088,-0.360445)">
                    <path d="M139.539,240.271C138.327,237.559 135.884,235.43 134.352,234.289L124.385,247.139L124.401,249.837C126.142,250.673 128.339,251.85 129.092,252.777C129.445,253.212 130.17,254.104 132.465,270.121L135.656,271.143L137.978,290.402C138.457,290.941 139.015,291.447 139.403,291.698C139.747,291.147 140.19,290.023 140.463,288.976L140.316,286.445C139.845,278.323 139.358,273.924 138.291,265.756L138.237,265.342L140.606,257.943C140.839,253.969 141.074,243.707 139.539,240.271Z" style="fill:rgb(128,128,128);fill-rule:nonzero;"/>
                </g>
                <g id="path4177" transform="matrix(1,0,0,1,60.7088,-0.360445)">
                    <path d="M158.534,219.144C157.455,216.513 154.42,213.87 152.391,212.376L142.572,224.485L142.541,227.655C144.489,228.49 146.551,229.538 147.276,230.478C147.617,230.92 148.317,231.827 149.861,247.319L153.043,248.465L154.263,266.947C154.746,267.514 155.312,268.045 155.692,268.288C156.06,267.805 156.567,266.746 156.898,265.748L156.872,263.308C156.789,255.493 156.705,251.412 156.022,243.523L155.984,243.085L158.747,236.084C159.177,232.275 159.908,222.49 158.534,219.144Z" style="fill:rgb(128,128,128);fill-rule:nonzero;"/>
                </g>
                <g id="path4179" transform="matrix(1,0,0,1,60.7088,-0.360445)">
                    <path d="M174.526,197.931C173.468,195.355 170.697,193.009 168.822,191.698L159.158,203.434L159.179,206.636C160.696,207.341 162.551,208.337 163.267,209.264C163.608,209.706 164.308,210.613 165.852,226.106L169.034,227.252L170.254,245.732C170.737,246.299 171.303,246.83 171.684,247.073C172.052,246.59 172.559,245.532 172.89,244.535L172.864,242.091C172.781,234.277 172.697,230.196 172.015,222.309L171.977,221.871L174.739,214.87C175.169,211.064 175.899,201.278 174.526,197.931Z" style="fill:rgb(128,128,128);fill-rule:nonzero;"/>
                </g>
                <g id="path4181" transform="matrix(1,0,0,1,60.7088,-0.360445)">
                    <path d="M188.771,178.312C187.908,175.713 185.907,173.402 184.543,172.047L175.553,183.324L175.539,186.746C176.94,187.539 178.851,188.754 179.529,189.823C179.808,190.263 180.381,191.167 181.468,206.791L184.173,207.986L184.879,226.662C185.149,227.049 185.455,227.428 185.721,227.705C186.021,227.137 186.373,226.256 186.617,225.433L186.632,222.933C186.68,215.048 186.729,210.894 186.264,202.924L186.242,202.549L188.706,195.555C189.132,191.726 189.917,181.763 188.771,178.312Z" style="fill:rgb(128,128,128);fill-rule:nonzero;"/>
                </g>
                <g id="path4183" transform="matrix(1,0,0,1,60.7088,-0.360445)">
                    <path d="M203.378,158.358C202.572,155.933 201.033,154.075 199.918,152.967L190.858,164.17L191.006,167.467C192.255,168.11 193.551,168.948 194.136,169.869C194.415,170.308 194.989,171.212 196.075,186.837L198.78,188.032L199.486,206.708C199.756,207.095 200.063,207.475 200.329,207.752C200.628,207.188 200.976,206.314 201.224,205.478L201.239,203.04C201.287,195.135 201.337,190.96 200.871,182.969L200.849,182.594L203.313,175.6C203.739,171.772 204.523,161.809 203.378,158.358Z" style="fill:rgb(128,128,128);fill-rule:nonzero;"/>
                </g>
                <g id="path4185" transform="matrix(1,0,0,1,60.7088,-0.360445)">
                    <path d="M216.038,141.005C215.363,138.815 214.17,137.107 213.241,136.021L204.934,146.435L204.932,149.641C205.988,150.337 207.426,151.401 207.986,152.352C208.239,152.782 208.757,153.663 209.744,168.97L212.204,170.141L212.845,188.386C213.018,188.653 213.208,188.919 213.39,189.147C213.634,188.597 213.959,187.86 214.147,187.17L214.223,184.714C214.267,176.978 214.298,172.607 214.02,165.157L214.001,164.808L215.981,157.958C216.369,154.207 217.085,144.406 216.038,141.005Z" style="fill:rgb(128,128,128);fill-rule:nonzero;"/>
                </g>
            </g>
            <g id="Text" transform="matrix(1,0,0,1,-5,-36.6031)">
                <text x="350.805px" y="328.137px" style="font-family:'CEAB';font-size:350px;">HSBNE</text>
            </g>
        </g>
        <g transform="matrix(1,0,0,1,-858.962,11)">
            <text x="1123.57px" y="496.523px" style="font-family:'ArialMT', 'Arial', sans-serif;font-size:180px;">V<tspan x="1240.37px 1280.36px " y="496.523px 496.523px ">is</tspan>it</text>
            <text x="1505.01px" y="496.523px" style="font-family:'ArialMT', 'Arial', sans-serif;font-size:180px;">hsbne</text>
            <text x="1995.44px" y="496.523px" style="font-family:'Arial-BoldMT', 'Arial', sans-serif;font-weight:700;font-size:180px;">.</text>
            <text x="2045.45px" y="496.523px" style="font-family:'ArialMT', 'Arial', sans-serif;font-size:180px;">org</text>
        </g>
    </g>
</svg>
