<?xml version="1.0" encoding="UTF-8" standalone="no"?>
<!-- Generator: Adobe Illustrator 15.1.0, SVG Export Plug-In . SVG Version: 6.00 Build 0)  -->

<svg
   xmlns:dc="http://purl.org/dc/elements/1.1/"
   xmlns:cc="http://creativecommons.org/ns#"
   xmlns:rdf="http://www.w3.org/1999/02/22-rdf-syntax-ns#"
   xmlns:svg="http://www.w3.org/2000/svg"
   xmlns="http://www.w3.org/2000/svg"
   xmlns:sodipodi="http://sodipodi.sourceforge.net/DTD/sodipodi-0.dtd"
   xmlns:inkscape="http://www.inkscape.org/namespaces/inkscape"
   version="1.0"
   id="svg6245"
   sodipodi:docname="Logo Stencil3.svg"
   inkscape:export-ydpi="265.70551"
   inkscape:export-xdpi="265.70551"
   inkscape:version="0.91 r13725"
   inkscape:export-filename="D:\Creations\HSBNE\Media-Assets-Pack-master\Art\logo3_1000.png"
   x="0px"
   y="0px"
   width="216.58241"
   height="338.72089"
   viewBox="100.62 159.35 216.58242 338.7209"
   enable-background="new 100.62 159.35 236.575 387.11"
   xml:space="preserve"><metadata
   id="metadata4189"><rdf:RDF><cc:Work
       rdf:about=""><dc:format>image/svg+xml</dc:format><dc:type
         rdf:resource="http://purl.org/dc/dcmitype/StillImage" /><dc:title></dc:title></cc:Work></rdf:RDF></metadata><defs
   id="defs4187">
	
	
	

	
	
	
</defs>
<sodipodi:namedview
   inkscape:window-maximized="0"
   id="base"
   inkscape:zoom="2"
   inkscape:cx="134.57684"
   inkscape:cy="158.09308"
   showgrid="false"
   pagecolor="#ffffff"
   bordercolor="#666666"
   borderopacity="1.0"
   inkscape:document-units="mm"
   inkscape:pageopacity="0.0"
   inkscape:pageshadow="2"
   inkscape:current-layer="svg6245"
   inkscape:snap-global="true"
   inkscape:window-width="1416"
   inkscape:window-height="1002"
   inkscape:window-x="2266"
   inkscape:window-y="1091"
   inkscape:object-paths="true"
   inkscape:snap-nodes="false"
   fit-margin-top="0"
   fit-margin-left="0"
   fit-margin-right="0"
   fit-margin-bottom="0">
	</sodipodi:namedview>
<path
   d="m 154.10205,429.7713 -0.046,10.623 -22.169,-10.952 -0.258,-11.838 -22.153,-10.567 -3.124,12.271 4.918,12.782 68.378,33.55 1.404,-8.109 -3.242,-16.96 z"
   id="polygon4138"
   inkscape:connector-curvature="0"
   sodipodi:nodetypes="ccccccccccc"
   style="fill:#000000;fill-opacity:1" />
<path
   inkscape:connector-curvature="0"
   id="path4144"
   d="m 183.82477,451.9449 13.729,-16.978 1.366,0.741 c 0.146,0.079 1.983,1.091 4.092,2.753 l 2.471,-3.117 c -0.289,-0.1 -0.579,-0.197 -0.868,-0.287 l -1.302,-0.407 -0.047,-7.157 12.509,-16.541 1.427,0.819 c 0.148,0.086 2.208,1.284 4.405,3.229 l 1.896,-2.392 c -0.368,-0.18 -0.743,-0.358 -1.116,-0.527 l -1.089,-0.494 -0.037,-6.367 12.84,-16.552 1.416,0.832 c 0.132,0.078 1.943,1.157 3.913,3.015 l 1.798,-2.269 c -0.213,-0.089 -0.426,-0.178 -0.639,-0.262 l -1.188,-0.474 0.069,-7.014 12.764,-15.742 1.4,0.873 c 0.132,0.082 1.667,1.053 3.471,2.588 l 0.785,-0.991 -1.809,-0.782 -0.047,-6.986 12.577,-15.273 1.366,0.777 2.438,1.414 0.028,-7.013 12.207,-15.311 1.46,1.165 c 0.08,0.063 0.854,0.689 1.871,1.722 l -0.298,-6.664 12.274,-15.179 1.432,1.025 c 0.031,0.022 0.189,0.138 0.429,0.332 l 0.002,-3.973 10.529,-13.2 -1.973,-9.655 -33.62137,41.2401 c -1.107,3.572 -2.604,6.98 -4.501,10.319 -3.653,6.427 -10.391,14.571 -15.021,18.156 -2.096,1.623 -4.878,3.425 -7.912,5.175 l -67.86235,83.2683 z"
   sodipodi:nodetypes="cccccccccccccccccccccccccccccccccccccccccccccccc"
   style="fill:#000000;fill-opacity:1" />

<path
   d="m 151.71105,419.0543 c -0.533,-1.204 -1.515,-2.046 -3.002,-2.571 -1.455,-0.515 -3.049,-0.775 -4.739,-0.775 -3.469,0 -6.563,1.074 -8.229,1.784 -0.137,0.069 -0.288,0.146 -0.407,0.204 l 0.105,7.406 c 2.772,-1.186 6.78,-2.335 10.362,-2.335 2.488,0 4.511,0.547 6.053,1.614 0.356,-1.485 0.618,-3.605 -0.143,-5.327 z"
   id="path4149"
   inkscape:connector-curvature="0"
   sodipodi:nodetypes="ccscccscc"
   style="fill:#000000;fill-opacity:1" />
<path
   d="m 150.34605,434.3943 0.035,-8.191 c -0.205,-0.103 -0.42,-0.201 -0.65,-0.294 -1.323,-0.531 -2.718,-0.801 -4.147,-0.801 -3.401,0 -6.46,1.506 -8.428,2.771 z"
   id="path4151"
   inkscape:connector-curvature="0"
   sodipodi:nodetypes="cccscc"
   style="fill:#000000;fill-opacity:1" />
<path
   d="m 102.43805,419.5383 2.589,-10.164 c -1.544,1.6 -2.984,3.289 -3.583,4.537 -1.026,2.136 -0.924,9.001 -0.599,13.353 l 2.028,1.659 -0.059,14.518 c 0.291,0.997 0.77,2.057 1.137,2.546 0.395,-0.366 0.955,-1.153 1.375,-1.944 l 0.401,-15.958 z"
   id="path4153"
   inkscape:connector-curvature="0"
   style="fill:#000000;fill-opacity:1"
   sodipodi:nodetypes="cccccccccc" />
<path
   style="fill:#000000;fill-opacity:1"
   d="M 103.02344 110.68555 C 102.82744 111.61255 102.62147 113.01519 102.48047 115.11719 C 101.63847 127.65919 89.405 152.10742 80.375 152.10742 C 80.26 152.10742 80.146203 152.10466 80.033203 152.09766 C 79.106203 152.03966 76.284813 151.86592 73.007812 142.41992 C 71.836813 139.04492 70.488969 137.49931 69.792969 136.94531 C 68.222159 149.11226 65.965836 152.98982 62.478516 161.0332 C 56.443516 175.5442 55.624875 185.88906 60.171875 190.16406 C 64.274535 194.65694 64.404453 195.27264 65.564453 197.80664 C 66.622453 200.11464 66.654203 202.07205 65.658203 203.62305 C 65.068203 204.54205 63.888906 205.61183 61.628906 205.79883 C 61.405906 205.81783 61.184453 205.83789 60.939453 205.83789 C 60.615453 205.83789 60.275828 205.8172 59.923828 205.7832 C 59.813828 205.7722 59.694031 205.75228 59.582031 205.73828 C 59.332031 205.70828 59.081359 205.67586 58.818359 205.63086 C 58.686359 205.60786 58.547109 205.57583 58.412109 205.54883 C 58.155109 205.49883 57.897859 205.44581 57.630859 205.38281 C 57.493859 205.35081 57.353844 205.31234 57.214844 205.27734 C 56.936844 205.20634 56.656141 205.13378 56.369141 205.05078 C 56.238141 205.01278 56.103703 204.97164 55.970703 204.93164 C 55.662703 204.83864 55.352156 204.74172 55.035156 204.63672 C 54.919156 204.59772 54.800594 204.55758 54.683594 204.51758 C 54.335594 204.39858 53.985859 204.27358 53.630859 204.14258 C 53.540859 204.10858 53.452328 204.07602 53.361328 204.04102 C 52.965328 203.89202 52.566109 203.73622 52.162109 203.57422 C 52.109109 203.55322 52.054953 203.53177 52.001953 203.50977 C 51.543953 203.32377 51.082141 203.13069 50.619141 202.92969 L 10.037109 244.0293 L 32.900391 255.04102 C 34.631391 254.23402 38.673609 252.62305 43.349609 252.62305 C 45.463609 252.62305 47.476031 252.95438 49.332031 253.60938 C 51.815031 254.48737 53.558672 256.03689 54.513672 258.21289 C 55.820672 261.18989 55.240641 264.60142 54.681641 266.60742 L 78.3125 277.61914 L 140.50586 201.44727 C 140.50586 201.44727 140.50391 201.44727 140.50391 201.44727 C 139.88891 201.73627 139.27778 202.0152 138.67578 202.2832 C 138.63078 202.3042 138.58602 202.3257 138.54102 202.3457 C 137.96602 202.6007 137.40075 202.84222 136.84375 203.07422 C 136.77475 203.10322 136.70377 203.13216 136.63477 203.16016 C 136.09477 203.38316 135.56778 203.59302 135.05078 203.79102 C 134.97178 203.82102 134.89441 203.85086 134.81641 203.88086 C 134.30941 204.07186 133.81689 204.25006 133.33789 204.41406 C 133.26089 204.44006 133.18442 204.46619 133.10742 204.49219 C 132.63342 204.65219 132.17633 204.79778 131.73633 204.92578 C 131.66833 204.94578 131.60311 204.96342 131.53711 204.98242 C 131.09711 205.10742 130.67244 205.21955 130.27344 205.31055 C 130.22244 205.32255 130.175 205.3308 130.125 205.3418 C 129.721 205.4308 129.33547 205.50373 128.98047 205.55273 C 128.95147 205.55673 128.92744 205.55655 128.89844 205.56055 C 128.53144 205.60755 128.18786 205.63672 127.88086 205.63672 C 127.71286 205.63672 127.5633 205.61066 127.4043 205.59766 C 126.2373 205.50266 125.29123 205.09022 124.61523 204.32422 C 123.90023 203.51522 122.22255 201.61869 126.81055 192.30469 C 130.62055 184.56869 129.99539 178.86047 124.02539 166.85547 C 121.70439 162.18947 119.35055 155.39605 119.56055 151.99805 C 119.60255 151.32505 119.54903 150.70273 119.45703 150.17773 C 118.33903 151.86073 116.94575 155.12616 116.71875 158.78516 C 116.31775 165.28516 113.27219 166.25586 111.49219 166.25586 C 110.87519 166.25586 110.25258 166.12705 109.64258 165.87305 C 105.93658 164.32705 105.44295 159.43794 107.12695 140.96094 C 108.78495 122.78694 108.34106 119.95948 105.53906 114.77148 C 104.45006 112.75348 103.62044 111.48355 103.02344 110.68555 z "
   transform="translate(100.62,159.35001)"
   id="path4155" />
<path
   d="m 273.1234,272.757 c 0.257,0.88 0.507,1.749 0.747,2.607 0.077,0.273 0.154,0.547 0.229,0.818 0.251,0.908 0.492,1.805 0.725,2.689 0.042,0.163 0.088,0.33 0.13,0.492 0.28,1.079 0.547,2.142 0.798,3.186 0.003,0.012 0.005,0.023 0.008,0.035 0.239,0.991 0.461,1.964 0.673,2.925 0.049,0.221 0.095,0.439 0.143,0.659 0.167,0.771 0.326,1.532 0.476,2.284 0.046,0.23 0.093,0.461 0.137,0.69 0.158,0.813 0.306,1.615 0.443,2.406 0.022,0.125 0.046,0.252 0.067,0.376 0.318,1.86 0.579,3.661 0.786,5.411 0.021,0.185 0.041,0.366 0.062,0.549 0.078,0.689 0.146,1.372 0.207,2.045 0.018,0.191 0.035,0.383 0.051,0.574 0.061,0.736 0.111,1.463 0.151,2.18 0.005,0.091 0.012,0.184 0.017,0.275 0.086,1.648 0.114,3.248 0.089,4.808 -0.003,0.156 -0.008,0.311 -0.011,0.466 -0.015,0.621 -0.038,1.235 -0.07,1.843 -0.009,0.165 -0.018,0.329 -0.027,0.493 -0.041,0.667 -0.092,1.326 -0.154,1.978 -0.007,0.072 -0.012,0.144 -0.019,0.215 -0.076,0.758 -0.165,1.506 -0.27,2.246 l 29.92637,-36.6601 -38.04266,-13.87172 c 0.356,1.151 2.18229,6.43082 2.51229,7.54582 0.074,0.246 0.144,0.49 0.216,0.736 z"
   id="path4157"
   inkscape:connector-curvature="0"
   sodipodi:nodetypes="cccccccccccccccccccccccccccccc"
   style="fill:#000000;fill-opacity:1" />
<path
   d="m 267.0254,330.21 c 8.655,-15.229 8.163,-31.706 -1.882,-62.962 -7.061,-21.968 -8.308,-32.979 -7.406,-44.257 0.38,-6.689 1.207,-11.8 1.136,-14.92 -1.536,0.853 -3.583,2.056 -6.028,3.606 -8.165,5.177 -15.29086,12.83151 -17.772,24.646 -1.39634,6.64896 -4.636,7.308 -5.918,7.308 -7.89,0 -17.94066,-14.19241 -25.13421,-29.68257 -9.52791,-21.80772 -8.03017,-31.05666 0.62721,-54.59842 -4.357,2.039 -12.492,7.551 -17.21,13.003 -15.222,17.586 -18.1756,27.87768 -15.11034,53.69142 1.49586,12.59726 -0.43183,28.05349 -3.62266,35.04357 -1.82817,4.00492 -4.059,4.847 -5.609,4.847 l -10e-4,0 c -1.173,0 -2.284,-0.495 -3.13,-1.394 -1.823,-1.939 -2.021,-5.338 -1.866,-7.848 0.617,-9.963 -4.125,-24.875 -10.147,-31.911 -3.109,-3.632 -4.781,-5.204 -5.676,-5.867 -0.882,2.705 -1.26,10.104 -1.395,12.741 -0.126,10.101 -0.99112,17.34679 -7.514,26.983 -12.90604,19.06601 -18.274,30.176 -20.072,42.756 -3.08,21.55 6.611,37.258 31.422,50.932 9.074,5 13.657,6.371 15.703,6.727 -0.934,-1.782 -1.64192,-3.12592 -3.745,-5.158 -6.69,-6.29 -6.396,-18.342 0.874,-35.822 3.599,-8.653 5.01106,-10.83612 6.423,-19.805 0.82655,-7.631 4.824,-8.225 6.147,-8.225 3.635,0 7.07,3.646 9.189,9.755 0.875,2.521 1.825,4.395 2.447,5.386 4.247,-2.326 14.55354,-19.30496 15.346,-31.12 0.24454,-3.64596 0.751,-11.231 5.895,-11.231 2.771,0 5.219,2.443 8.453,8.431 3.846,7.122 3.864,12.289 2.286,29.592 -0.345,3.783 -0.574,6.854 -0.714,9.345 1.604,-4.193 4.253,-7.746 7.627,-7.746 4.82669,0.31051 5.18097,5.73534 5.534,9.265 0.30746,3.07404 2.111,8.562 3.846,11.807 6.829,13.733 7.508,21.213 2.795,30.785 -0.776,1.576 -1.353,2.976 -1.754,4.098 5.389,-1.709 16.268,-7.02 22.48,-11.828 4.036,-3.125 10.207,-10.623 13.476,-16.373 z"
   id="path4159"
   inkscape:connector-curvature="0"
   style="fill:#000000;fill-opacity:1"
   sodipodi:nodetypes="cccccsscccsssscccccsscccccsccsscsccscsccc" />
<polygon
   style="fill:#000000;fill-opacity:1"
   id="polygon4165"
   points="224.338,279.541 224.337,279.539 224.337,279.541 "
   transform="translate(-19.992234,-19.400108)" />

<path
   d="m 205.19277,446.3949 c -1.4,-2.746 -4.642,-5.253 -6.732,-6.608 l -10.844,13.409 0.126,3.005 c 1.801,0.679 4.057,1.658 4.909,2.578 0.407,0.439 1.243,1.343 3.876,17.448 l 3.656,1.026 2.656,19.321 c 0.722,0.712 1.575,1.345 2.03,1.497 0.4,-0.42 1.006,-1.699 1.362,-2.88 l -0.166,-2.489 c -0.54,-8.152 -1.097,-12.582 -2.319,-20.777 l -0.07,-0.47 2.721,-7.45 c 0.267,-3.99 0.532,-14.202 -1.205,-17.61 z"
   id="path4171"
   inkscape:connector-curvature="0"
   style="fill:#000000;fill-opacity:1"
   sodipodi:nodetypes="ccccccccccccccc" />
<path
   d="m 222.70377,422.1819 c -1.316,-2.735 -4.248,-5.067 -5.989,-6.279 l -9.705,12.832 0.021,3.188 c 1.653,0.583 3.651,1.43 4.444,2.337 0.375,0.427 1.147,1.309 3.565,16.962 l 3.361,1 2.445,18.731 c 0.572,0.594 1.24,1.138 1.655,1.347 0.361,-0.482 0.856,-1.625 1.163,-2.7 l -0.155,-2.457 c -0.496,-7.93 -1.008,-12.129 -2.131,-20.1 l -0.063,-0.445 2.499,-7.246 c 0.246,-3.886 0.491,-13.846 -1.11,-17.17 z"
   id="path4173"
   inkscape:connector-curvature="0"
   style="fill:#000000;fill-opacity:1"
   sodipodi:nodetypes="ccccccccccccccc" />
<path
   d="m 240.15877,399.6209 c -1.212,-2.712 -3.655,-4.841 -5.187,-5.982 l -9.967,12.85 0.016,2.698 c 1.741,0.836 3.938,2.013 4.691,2.94 0.353,0.435 1.078,1.327 3.373,17.344 l 3.191,1.022 2.322,19.259 c 0.479,0.539 1.037,1.045 1.425,1.296 0.344,-0.551 0.787,-1.675 1.06,-2.722 l -0.147,-2.531 c -0.471,-8.122 -0.958,-12.521 -2.025,-20.689 l -0.054,-0.414 2.369,-7.399 c 0.233,-3.974 0.468,-14.236 -1.067,-17.672 z"
   id="path4175"
   inkscape:connector-curvature="0"
   style="fill:#000000;fill-opacity:1"
   sodipodi:nodetypes="ccccccccccccccc" />
<path
   d="m 259.15377,378.4939 c -1.079,-2.631 -4.114,-5.274 -6.143,-6.768 l -9.819,12.109 -0.031,3.17 c 1.948,0.835 4.01,1.883 4.735,2.823 0.341,0.442 1.041,1.349 2.585,16.841 l 3.182,1.146 1.22,18.482 c 0.483,0.567 1.049,1.098 1.429,1.341 0.368,-0.483 0.875,-1.542 1.206,-2.54 l -0.026,-2.44 c -0.083,-7.815 -0.167,-11.896 -0.85,-19.785 l -0.038,-0.438 2.763,-7.001 c 0.43,-3.809 1.161,-13.594 -0.213,-16.94 z"
   id="path4177"
   inkscape:connector-curvature="0"
   style="fill:#000000;fill-opacity:1"
   sodipodi:nodetypes="ccccccccccccccc" />
<path
   d="m 275.14577,357.2809 c -1.058,-2.576 -3.829,-4.922 -5.704,-6.233 l -9.664,11.736 0.021,3.202 c 1.517,0.705 3.372,1.701 4.088,2.628 0.341,0.442 1.041,1.349 2.585,16.842 l 3.182,1.146 1.22,18.48 c 0.483,0.567 1.049,1.098 1.43,1.341 0.368,-0.483 0.875,-1.541 1.206,-2.538 l -0.026,-2.444 c -0.083,-7.814 -0.167,-11.895 -0.849,-19.782 l -0.038,-0.438 2.762,-7.001 c 0.43,-3.806 1.16,-13.592 -0.213,-16.939 z"
   id="path4179"
   inkscape:connector-curvature="0"
   style="fill:#000000;fill-opacity:1"
   sodipodi:nodetypes="ccccccccccccccc" />
<path
   d="m 289.39077,337.6619 c -0.863,-2.599 -2.864,-4.91 -4.228,-6.265 l -8.99,11.277 -0.014,3.422 c 1.401,0.793 3.312,2.008 3.99,3.077 0.279,0.44 0.852,1.344 1.939,16.968 l 2.705,1.195 0.706,18.676 c 0.27,0.387 0.576,0.766 0.842,1.043 0.3,-0.568 0.652,-1.449 0.896,-2.272 l 0.015,-2.5 c 0.048,-7.885 0.097,-12.039 -0.368,-20.009 l -0.022,-0.375 2.464,-6.994 c 0.426,-3.829 1.211,-13.792 0.065,-17.243 z"
   id="path4181"
   inkscape:connector-curvature="0"
   style="fill:#000000;fill-opacity:1"
   sodipodi:nodetypes="ccccccccccccccc" />
<path
   d="m 303.99777,317.7079 c -0.806,-2.425 -2.345,-4.283 -3.46,-5.391 l -9.06,11.203 0.148,3.297 c 1.249,0.643 2.545,1.481 3.13,2.402 0.279,0.439 0.853,1.343 1.939,16.968 l 2.705,1.195 0.706,18.676 c 0.27,0.387 0.577,0.767 0.843,1.044 0.299,-0.564 0.647,-1.438 0.895,-2.274 l 0.015,-2.438 c 0.048,-7.905 0.098,-12.08 -0.368,-20.071 l -0.022,-0.375 2.464,-6.994 c 0.426,-3.828 1.21,-13.791 0.065,-17.242 z"
   id="path4183"
   inkscape:connector-curvature="0"
   style="fill:#000000;fill-opacity:1"
   sodipodi:nodetypes="ccccccccccccccc" />
<path
   d="m 316.65777,300.3549 c -0.675,-2.19 -1.868,-3.898 -2.797,-4.984 l -8.307,10.414 -0.002,3.206 c 1.056,0.696 2.494,1.76 3.054,2.711 0.253,0.43 0.771,1.311 1.758,16.618 l 2.46,1.171 0.641,18.245 c 0.173,0.267 0.363,0.533 0.545,0.761 0.244,-0.55 0.5695,-1.287 0.7575,-1.977 l 0.0755,-2.456 c 0.044,-7.736 0.0756,-12.10691 -0.20242,-19.557 l -0.019,-0.349 1.97942,-6.85 c 0.388,-3.751 1.104,-13.552 0.057,-16.953 z"
   id="path4185"
   inkscape:connector-curvature="0"
   style="fill:#000000;fill-opacity:1"
   sodipodi:nodetypes="ccccccccccccccc" />
</svg>
